<svg xmlns="http://www.w3.org/2000/svg" viewBox="0 0 960 1762" width="900" role="img" aria-label="Google Maps — System Architecture">
<title>Google Maps — System Architecture</title>
<rect x="0.5" y="0.5" width="959" height="1761" rx="16" fill="#f8fafc" stroke="#e2e8f0" stroke-width="1"/>
<rect x="52" y="288" width="741" height="1374" rx="14" fill="none" stroke="#cbd5e1" stroke-width="1.3" stroke-dasharray="7 5"/>
<rect x="64" y="296" width="99.2" height="20" rx="10" fill="#ffffff" stroke="#e2e8f0" stroke-width="1"/>
<text x="113.6" y="310" text-anchor="middle" font-family="JetBrains Mono, ui-monospace, SFMono-Regular, Menlo, Consolas, monospace" font-size="11" fill="#475569">Google Maps</text>
<path d="M423 132 L423 156 L439 156 L439 298 L423 298 L423 322" fill="none" stroke="#64748b" stroke-width="1.5" marker-end="url(#arr-google-maps)"/>
<path d="M423 384 L423 408 L439 408 L439 550 L423 550 L423 574" fill="none" stroke="#64748b" stroke-width="1.5" marker-end="url(#arr-google-maps)"/>
<path d="M403 636 L403 731 L165 731 L165 826" fill="none" stroke="#64748b" stroke-width="1.5" marker-end="url(#arr-google-maps)"/>
<path d="M423 636 L423 826" fill="none" stroke="#64748b" stroke-width="1.5" marker-end="url(#arr-google-maps)"/>
<path d="M443 636 L443 731 L681 731 L681 826" fill="none" stroke="#64748b" stroke-width="1.5" marker-end="url(#arr-google-maps)"/>
<path d="M165 888 L165 912 L181 912 L181 1054 L153 1054 L153 1078" fill="none" stroke="#64748b" stroke-width="1.5" marker-end="url(#arr-google-maps)"/>
<path d="M423 888 L423 912 L447 912 L447 1054 L431 1054 L431 1078" fill="none" stroke="#64748b" stroke-width="1.5" marker-end="url(#arr-google-maps)"/>
<path d="M681 888 L681 983 L701 983 L701 1078" fill="none" stroke="#64748b" stroke-width="1.5" marker-end="url(#arr-google-maps)"/>
<path d="M153 1140 L153 1235 L403 1235 L403 1330" fill="none" stroke="#64748b" stroke-width="1.5" marker-end="url(#arr-google-maps)"/>
<path d="M423 1140 L423 1330" fill="none" stroke="#64748b" stroke-width="1.5" marker-end="url(#arr-google-maps)"/>
<path d="M701 1140 L701 1235 L443 1235 L443 1330" fill="none" stroke="#64748b" stroke-width="1.5" marker-end="url(#arr-google-maps)"/>
<path d="M403 1392 L403 1487 L165 1487 L165 1582" fill="none" stroke="#64748b" stroke-width="1.5" marker-end="url(#arr-google-maps)"/>
<path d="M423 1392 L423 1582" fill="none" stroke="#64748b" stroke-width="1.5" marker-end="url(#arr-google-maps)"/>
<path d="M443 1392 L443 1487 L681 1487 L681 1582" fill="none" stroke="#64748b" stroke-width="1.5" marker-end="url(#arr-google-maps)"/>
<rect x="349" y="73" width="148" height="62" rx="12" fill="#0f172a" fill-opacity="0.08"/>
<rect x="349" y="70" width="148" height="62" rx="12" fill="#ecfdf5" stroke="#10b981" stroke-width="1.4"/>
<rect x="352" y="73" width="142" height="56" rx="9" fill="none" stroke="#ffffff" stroke-opacity="0.5" stroke-width="1"/>
<text x="423" y="106" text-anchor="middle" font-family="JetBrains Mono, ui-monospace, SFMono-Regular, Menlo, Consolas, monospace" font-size="13" font-weight="bold" fill="#064e3b">Mobile App</text>
<rect x="342" y="325" width="161" height="62" rx="12" fill="#0f172a" fill-opacity="0.08"/>
<rect x="342" y="322" width="161" height="62" rx="12" fill="#eef2ff" stroke="#6366f1" stroke-width="1.4"/>
<rect x="345" y="325" width="155" height="56" rx="9" fill="none" stroke="#ffffff" stroke-opacity="0.5" stroke-width="1"/>
<text x="422.5" y="358" text-anchor="middle" font-family="JetBrains Mono, ui-monospace, SFMono-Regular, Menlo, Consolas, monospace" font-size="13" font-weight="bold" fill="#312e81">WAF / API Gateway</text>
<rect x="349" y="577" width="148" height="62" rx="12" fill="#0f172a" fill-opacity="0.08"/>
<rect x="349" y="574" width="148" height="62" rx="12" fill="#eef2ff" stroke="#6366f1" stroke-width="1.4"/>
<rect x="352" y="577" width="142" height="56" rx="9" fill="none" stroke="#ffffff" stroke-opacity="0.5" stroke-width="1"/>
<text x="423" y="610" text-anchor="middle" font-family="JetBrains Mono, ui-monospace, SFMono-Regular, Menlo, Consolas, monospace" font-size="13" font-weight="bold" fill="#312e81">Load Balancer</text>
<rect x="91" y="829" width="148" height="62" rx="12" fill="#0f172a" fill-opacity="0.08"/>
<rect x="91" y="826" width="148" height="62" rx="12" fill="#eef2ff" stroke="#6366f1" stroke-width="1.4"/>
<rect x="94" y="829" width="142" height="56" rx="9" fill="none" stroke="#ffffff" stroke-opacity="0.5" stroke-width="1"/>
<text x="165" y="862" text-anchor="middle" font-family="JetBrains Mono, ui-monospace, SFMono-Regular, Menlo, Consolas, monospace" font-size="13" font-weight="bold" fill="#312e81">Map Svc</text>
<rect x="349" y="829" width="148" height="62" rx="12" fill="#0f172a" fill-opacity="0.08"/>
<rect x="349" y="826" width="148" height="62" rx="12" fill="#eef2ff" stroke="#6366f1" stroke-width="1.4"/>
<rect x="352" y="829" width="142" height="56" rx="9" fill="none" stroke="#ffffff" stroke-opacity="0.5" stroke-width="1"/>
<text x="423" y="862" text-anchor="middle" font-family="JetBrains Mono, ui-monospace, SFMono-Regular, Menlo, Consolas, monospace" font-size="13" font-weight="bold" fill="#312e81">Routing Svc</text>
<rect x="607" y="829" width="148" height="62" rx="12" fill="#0f172a" fill-opacity="0.08"/>
<rect x="607" y="826" width="148" height="62" rx="12" fill="#eef2ff" stroke="#6366f1" stroke-width="1.4"/>
<rect x="610" y="829" width="142" height="56" rx="9" fill="none" stroke="#ffffff" stroke-opacity="0.5" stroke-width="1"/>
<text x="681" y="862" text-anchor="middle" font-family="JetBrains Mono, ui-monospace, SFMono-Regular, Menlo, Consolas, monospace" font-size="13" font-weight="bold" fill="#312e81">Traffic Svc</text>
<rect x="91" y="1585" width="148" height="62" rx="12" fill="#0f172a" fill-opacity="0.08"/>
<rect x="91" y="1582" width="148" height="62" rx="12" fill="#eef2ff" stroke="#6366f1" stroke-width="1.4"/>
<rect x="94" y="1585" width="142" height="56" rx="9" fill="none" stroke="#ffffff" stroke-opacity="0.5" stroke-width="1"/>
<text x="165" y="1618" text-anchor="middle" font-family="JetBrains Mono, ui-monospace, SFMono-Regular, Menlo, Consolas, monospace" font-size="13" font-weight="bold" fill="#312e81">Map Tile Workers</text>
<rect x="349" y="1585" width="148" height="62" rx="12" fill="#0f172a" fill-opacity="0.08"/>
<rect x="349" y="1582" width="148" height="62" rx="12" fill="#eef2ff" stroke="#6366f1" stroke-width="1.4"/>
<rect x="352" y="1585" width="142" height="56" rx="9" fill="none" stroke="#ffffff" stroke-opacity="0.5" stroke-width="1"/>
<text x="423" y="1618" text-anchor="middle" font-family="JetBrains Mono, ui-monospace, SFMono-Regular, Menlo, Consolas, monospace" font-size="13" font-weight="bold" fill="#312e81">Analytics</text>
<rect x="607" y="1585" width="148" height="62" rx="12" fill="#0f172a" fill-opacity="0.08"/>
<rect x="607" y="1582" width="148" height="62" rx="12" fill="#eef2ff" stroke="#6366f1" stroke-width="1.4"/>
<rect x="610" y="1585" width="142" height="56" rx="9" fill="none" stroke="#ffffff" stroke-opacity="0.5" stroke-width="1"/>
<text x="681" y="1618" text-anchor="middle" font-family="JetBrains Mono, ui-monospace, SFMono-Regular, Menlo, Consolas, monospace" font-size="13" font-weight="bold" fill="#312e81">Traffic Workers</text>
<rect x="70" y="1081" width="165" height="62" rx="12" fill="#0f172a" fill-opacity="0.08"/>
<rect x="70" y="1078" width="165" height="62" rx="12" fill="#f5f3ff" stroke="#8b5cf6" stroke-width="1.4"/>
<rect x="73" y="1081" width="159" height="56" rx="9" fill="none" stroke="#ffffff" stroke-opacity="0.5" stroke-width="1"/>
<text x="152.5" y="1114" text-anchor="middle" font-family="JetBrains Mono, ui-monospace, SFMono-Regular, Menlo, Consolas, monospace" font-size="13" font-weight="bold" fill="#4c1d95">S2 Geometry + Redis</text>
<rect x="345" y="1081" width="172" height="62" rx="12" fill="#0f172a" fill-opacity="0.08"/>
<rect x="345" y="1078" width="172" height="62" rx="12" fill="#f5f3ff" stroke="#8b5cf6" stroke-width="1.4"/>
<rect x="348" y="1081" width="166" height="56" rx="9" fill="none" stroke="#ffffff" stroke-opacity="0.5" stroke-width="1"/>
<text x="431" y="1114" text-anchor="middle" font-family="JetBrains Mono, ui-monospace, SFMono-Regular, Menlo, Consolas, monospace" font-size="13" font-weight="bold" fill="#4c1d95">Dijkstra + A* + OSRM</text>
<rect x="627" y="1081" width="148" height="62" rx="12" fill="#0f172a" fill-opacity="0.08"/>
<rect x="627" y="1078" width="148" height="62" rx="12" fill="#f5f3ff" stroke="#8b5cf6" stroke-width="1.4"/>
<rect x="630" y="1081" width="142" height="56" rx="9" fill="none" stroke="#ffffff" stroke-opacity="0.5" stroke-width="1"/>
<text x="701" y="1114" text-anchor="middle" font-family="JetBrains Mono, ui-monospace, SFMono-Regular, Menlo, Consolas, monospace" font-size="13" font-weight="bold" fill="#4c1d95">ML + Kafka</text>
<rect x="349" y="1333" width="148" height="62" rx="12" fill="#0f172a" fill-opacity="0.08"/>
<rect x="349" y="1330" width="148" height="62" rx="12" fill="#fff7ed" stroke="#f97316" stroke-width="1.4"/>
<rect x="352" y="1333" width="142" height="56" rx="9" fill="none" stroke="#ffffff" stroke-opacity="0.5" stroke-width="1"/>
<text x="423" y="1366" text-anchor="middle" font-family="JetBrains Mono, ui-monospace, SFMono-Regular, Menlo, Consolas, monospace" font-size="13" font-weight="bold" fill="#7c2d12">Kafka</text>
<defs><marker id="arr-google-maps" viewBox="0 0 10 10" refX="9" refY="5" markerWidth="9" markerHeight="9" markerUnits="userSpaceOnUse" orient="auto-start-reverse"><path d="M0 0 L10 5 L0 10 z" fill="#64748b"/></marker><marker id="arrEm-google-maps" viewBox="0 0 10 10" refX="9" refY="5" markerWidth="9" markerHeight="9" markerUnits="userSpaceOnUse" orient="auto-start-reverse"><path d="M0 0 L10 5 L0 10 z" fill="#10b981"/></marker></defs>
</svg>
