<svg xmlns="http://www.w3.org/2000/svg" viewBox="0 0 960 1762" width="900" role="img" aria-label="Metro Ticketing — System Architecture">
<title>Metro Ticketing — System Architecture</title>
<rect x="0.5" y="0.5" width="959" height="1761" rx="16" fill="#f8fafc" stroke="#e2e8f0" stroke-width="1"/>
<rect x="52" y="288" width="739" height="1374" rx="14" fill="none" stroke="#cbd5e1" stroke-width="1.3" stroke-dasharray="7 5"/>
<rect x="64" y="296" width="128" height="20" rx="10" fill="#ffffff" stroke="#e2e8f0" stroke-width="1"/>
<text x="128" y="310" text-anchor="middle" font-family="JetBrains Mono, ui-monospace, SFMono-Regular, Menlo, Consolas, monospace" font-size="11" fill="#475569">Metro Ticketing</text>
<path d="M422 132 L422 156 L438 156 L438 298 L422 298 L422 322" fill="none" stroke="#64748b" stroke-width="1.5" marker-end="url(#arr-metro-ticketing)"/>
<path d="M422 384 L422 408 L438 408 L438 550 L422 550 L422 574" fill="none" stroke="#64748b" stroke-width="1.5" marker-end="url(#arr-metro-ticketing)"/>
<path d="M402 636 L402 731 L164 731 L164 826" fill="none" stroke="#64748b" stroke-width="1.5" marker-end="url(#arr-metro-ticketing)"/>
<path d="M422 636 L422 826" fill="none" stroke="#64748b" stroke-width="1.5" marker-end="url(#arr-metro-ticketing)"/>
<path d="M442 636 L442 731 L680 731 L680 826" fill="none" stroke="#64748b" stroke-width="1.5" marker-end="url(#arr-metro-ticketing)"/>
<path d="M164 888 L164 912 L180 912 L180 1054 L159 1054 L159 1078" fill="none" stroke="#64748b" stroke-width="1.5" marker-end="url(#arr-metro-ticketing)"/>
<path d="M422 888 L422 1078" fill="none" stroke="#64748b" stroke-width="1.5" marker-end="url(#arr-metro-ticketing)"/>
<path d="M680 888 L680 912 L701 912 L701 1054 L685 1054 L685 1078" fill="none" stroke="#64748b" stroke-width="1.5" marker-end="url(#arr-metro-ticketing)"/>
<path d="M159 1140 L159 1235 L402 1235 L402 1330" fill="none" stroke="#64748b" stroke-width="1.5" marker-end="url(#arr-metro-ticketing)"/>
<path d="M422 1140 L422 1330" fill="none" stroke="#64748b" stroke-width="1.5" marker-end="url(#arr-metro-ticketing)"/>
<path d="M685 1140 L685 1235 L442 1235 L442 1330" fill="none" stroke="#64748b" stroke-width="1.5" marker-end="url(#arr-metro-ticketing)"/>
<path d="M402 1392 L402 1487 L164 1487 L164 1582" fill="none" stroke="#64748b" stroke-width="1.5" marker-end="url(#arr-metro-ticketing)"/>
<path d="M422 1392 L422 1487 L441 1487 L441 1582" fill="none" stroke="#64748b" stroke-width="1.5" marker-end="url(#arr-metro-ticketing)"/>
<path d="M442 1392 L442 1487 L699 1487 L699 1582" fill="none" stroke="#64748b" stroke-width="1.5" marker-end="url(#arr-metro-ticketing)"/>
<rect x="348" y="73" width="148" height="62" rx="12" fill="#0f172a" fill-opacity="0.08"/>
<rect x="348" y="70" width="148" height="62" rx="12" fill="#ecfdf5" stroke="#10b981" stroke-width="1.4"/>
<rect x="351" y="73" width="142" height="56" rx="9" fill="none" stroke="#ffffff" stroke-opacity="0.5" stroke-width="1"/>
<text x="422" y="106" text-anchor="middle" font-family="JetBrains Mono, ui-monospace, SFMono-Regular, Menlo, Consolas, monospace" font-size="13" font-weight="bold" fill="#064e3b">Mobile App</text>
<rect x="341" y="325" width="161" height="62" rx="12" fill="#0f172a" fill-opacity="0.08"/>
<rect x="341" y="322" width="161" height="62" rx="12" fill="#eef2ff" stroke="#6366f1" stroke-width="1.4"/>
<rect x="344" y="325" width="155" height="56" rx="9" fill="none" stroke="#ffffff" stroke-opacity="0.5" stroke-width="1"/>
<text x="421.5" y="358" text-anchor="middle" font-family="JetBrains Mono, ui-monospace, SFMono-Regular, Menlo, Consolas, monospace" font-size="13" font-weight="bold" fill="#312e81">WAF / API Gateway</text>
<rect x="348" y="577" width="148" height="62" rx="12" fill="#0f172a" fill-opacity="0.08"/>
<rect x="348" y="574" width="148" height="62" rx="12" fill="#eef2ff" stroke="#6366f1" stroke-width="1.4"/>
<rect x="351" y="577" width="142" height="56" rx="9" fill="none" stroke="#ffffff" stroke-opacity="0.5" stroke-width="1"/>
<text x="422" y="610" text-anchor="middle" font-family="JetBrains Mono, ui-monospace, SFMono-Regular, Menlo, Consolas, monospace" font-size="13" font-weight="bold" fill="#312e81">Load Balancer</text>
<rect x="90" y="829" width="148" height="62" rx="12" fill="#0f172a" fill-opacity="0.08"/>
<rect x="90" y="826" width="148" height="62" rx="12" fill="#eef2ff" stroke="#6366f1" stroke-width="1.4"/>
<rect x="93" y="829" width="142" height="56" rx="9" fill="none" stroke="#ffffff" stroke-opacity="0.5" stroke-width="1"/>
<text x="164" y="862" text-anchor="middle" font-family="JetBrains Mono, ui-monospace, SFMono-Regular, Menlo, Consolas, monospace" font-size="13" font-weight="bold" fill="#312e81">Ticket Svc</text>
<rect x="348" y="829" width="148" height="62" rx="12" fill="#0f172a" fill-opacity="0.08"/>
<rect x="348" y="826" width="148" height="62" rx="12" fill="#eef2ff" stroke="#6366f1" stroke-width="1.4"/>
<rect x="351" y="829" width="142" height="56" rx="9" fill="none" stroke="#ffffff" stroke-opacity="0.5" stroke-width="1"/>
<text x="422" y="862" text-anchor="middle" font-family="JetBrains Mono, ui-monospace, SFMono-Regular, Menlo, Consolas, monospace" font-size="13" font-weight="bold" fill="#312e81">Gate Controller</text>
<rect x="606" y="829" width="148" height="62" rx="12" fill="#0f172a" fill-opacity="0.08"/>
<rect x="606" y="826" width="148" height="62" rx="12" fill="#eef2ff" stroke="#6366f1" stroke-width="1.4"/>
<rect x="609" y="829" width="142" height="56" rx="9" fill="none" stroke="#ffffff" stroke-opacity="0.5" stroke-width="1"/>
<text x="680" y="862" text-anchor="middle" font-family="JetBrains Mono, ui-monospace, SFMono-Regular, Menlo, Consolas, monospace" font-size="13" font-weight="bold" fill="#312e81">Fare Calc Svc</text>
<rect x="70" y="1585" width="187" height="62" rx="12" fill="#0f172a" fill-opacity="0.08"/>
<rect x="70" y="1582" width="187" height="62" rx="12" fill="#eef2ff" stroke="#6366f1" stroke-width="1.4"/>
<rect x="73" y="1585" width="181" height="56" rx="9" fill="none" stroke="#ffffff" stroke-opacity="0.5" stroke-width="1"/>
<text x="163.5" y="1618" text-anchor="middle" font-family="JetBrains Mono, ui-monospace, SFMono-Regular, Menlo, Consolas, monospace" font-size="13" font-weight="bold" fill="#312e81">Reconciliation Workers</text>
<rect x="367" y="1585" width="148" height="62" rx="12" fill="#0f172a" fill-opacity="0.08"/>
<rect x="367" y="1582" width="148" height="62" rx="12" fill="#eef2ff" stroke="#6366f1" stroke-width="1.4"/>
<rect x="370" y="1585" width="142" height="56" rx="9" fill="none" stroke="#ffffff" stroke-opacity="0.5" stroke-width="1"/>
<text x="441" y="1618" text-anchor="middle" font-family="JetBrains Mono, ui-monospace, SFMono-Regular, Menlo, Consolas, monospace" font-size="13" font-weight="bold" fill="#312e81">Analytics</text>
<rect x="625" y="1585" width="148" height="62" rx="12" fill="#0f172a" fill-opacity="0.08"/>
<rect x="625" y="1582" width="148" height="62" rx="12" fill="#eef2ff" stroke="#6366f1" stroke-width="1.4"/>
<rect x="628" y="1585" width="142" height="56" rx="9" fill="none" stroke="#ffffff" stroke-opacity="0.5" stroke-width="1"/>
<text x="699" y="1618" text-anchor="middle" font-family="JetBrains Mono, ui-monospace, SFMono-Regular, Menlo, Consolas, monospace" font-size="13" font-weight="bold" fill="#312e81">Notifications</text>
<rect x="80" y="1081" width="158" height="62" rx="12" fill="#0f172a" fill-opacity="0.08"/>
<rect x="80" y="1078" width="158" height="62" rx="12" fill="#f5f3ff" stroke="#8b5cf6" stroke-width="1.4"/>
<rect x="83" y="1081" width="152" height="56" rx="9" fill="none" stroke="#ffffff" stroke-opacity="0.5" stroke-width="1"/>
<text x="159" y="1114" text-anchor="middle" font-family="JetBrains Mono, ui-monospace, SFMono-Regular, Menlo, Consolas, monospace" font-size="13" font-weight="bold" fill="#4c1d95">PostgreSQL + Redis</text>
<rect x="348" y="1081" width="148" height="62" rx="12" fill="#0f172a" fill-opacity="0.08"/>
<rect x="348" y="1078" width="148" height="62" rx="12" fill="#f5f3ff" stroke="#8b5cf6" stroke-width="1.4"/>
<rect x="351" y="1081" width="142" height="56" rx="9" fill="none" stroke="#ffffff" stroke-opacity="0.5" stroke-width="1"/>
<text x="422" y="1114" text-anchor="middle" font-family="JetBrains Mono, ui-monospace, SFMono-Regular, Menlo, Consolas, monospace" font-size="13" font-weight="bold" fill="#4c1d95">IoT + MQTT</text>
<rect x="606" y="1081" width="158" height="62" rx="12" fill="#0f172a" fill-opacity="0.08"/>
<rect x="606" y="1078" width="158" height="62" rx="12" fill="#f5f3ff" stroke="#8b5cf6" stroke-width="1.4"/>
<rect x="609" y="1081" width="152" height="56" rx="9" fill="none" stroke="#ffffff" stroke-opacity="0.5" stroke-width="1"/>
<text x="685" y="1114" text-anchor="middle" font-family="JetBrains Mono, ui-monospace, SFMono-Regular, Menlo, Consolas, monospace" font-size="13" font-weight="bold" fill="#4c1d95">Redis + PostgreSQL</text>
<rect x="348" y="1333" width="148" height="62" rx="12" fill="#0f172a" fill-opacity="0.08"/>
<rect x="348" y="1330" width="148" height="62" rx="12" fill="#fff7ed" stroke="#f97316" stroke-width="1.4"/>
<rect x="351" y="1333" width="142" height="56" rx="9" fill="none" stroke="#ffffff" stroke-opacity="0.5" stroke-width="1"/>
<text x="422" y="1366" text-anchor="middle" font-family="JetBrains Mono, ui-monospace, SFMono-Regular, Menlo, Consolas, monospace" font-size="13" font-weight="bold" fill="#7c2d12">Kafka</text>
<defs><marker id="arr-metro-ticketing" viewBox="0 0 10 10" refX="9" refY="5" markerWidth="9" markerHeight="9" markerUnits="userSpaceOnUse" orient="auto-start-reverse"><path d="M0 0 L10 5 L0 10 z" fill="#64748b"/></marker><marker id="arrEm-metro-ticketing" viewBox="0 0 10 10" refX="9" refY="5" markerWidth="9" markerHeight="9" markerUnits="userSpaceOnUse" orient="auto-start-reverse"><path d="M0 0 L10 5 L0 10 z" fill="#10b981"/></marker></defs>
</svg>
