<svg xmlns="http://www.w3.org/2000/svg" viewBox="0 0 960 1762" width="900" role="img" aria-label="Video Conferencing — System Architecture">
<title>Video Conferencing — System Architecture</title>
<rect x="0.5" y="0.5" width="959" height="1761" rx="16" fill="#f8fafc" stroke="#e2e8f0" stroke-width="1"/>
<rect x="52" y="288" width="727" height="1374" rx="14" fill="none" stroke="#cbd5e1" stroke-width="1.3" stroke-dasharray="7 5"/>
<rect x="64" y="296" width="149.6" height="20" rx="10" fill="#ffffff" stroke="#e2e8f0" stroke-width="1"/>
<text x="138.8" y="310" text-anchor="middle" font-family="JetBrains Mono, ui-monospace, SFMono-Regular, Menlo, Consolas, monospace" font-size="11" fill="#475569">Video Conferencing</text>
<path d="M416 132 L416 156 L432 156 L432 298 L416 298 L416 322" fill="none" stroke="#64748b" stroke-width="1.5" marker-end="url(#arr-video-conferencing)"/>
<path d="M416 384 L416 408 L432 408 L432 550 L416 550 L416 574" fill="none" stroke="#64748b" stroke-width="1.5" marker-end="url(#arr-video-conferencing)"/>
<path d="M396 636 L396 731 L158 731 L158 826" fill="none" stroke="#64748b" stroke-width="1.5" marker-end="url(#arr-video-conferencing)"/>
<path d="M416 636 L416 826" fill="none" stroke="#64748b" stroke-width="1.5" marker-end="url(#arr-video-conferencing)"/>
<path d="M436 636 L436 731 L674 731 L674 826" fill="none" stroke="#64748b" stroke-width="1.5" marker-end="url(#arr-video-conferencing)"/>
<path d="M158 888 L158 912 L174 912 L174 1054 L158 1054 L158 1078" fill="none" stroke="#64748b" stroke-width="1.5" marker-end="url(#arr-video-conferencing)"/>
<path d="M416 888 L416 912 L433 912 L433 1054 L417 1054 L417 1078" fill="none" stroke="#64748b" stroke-width="1.5" marker-end="url(#arr-video-conferencing)"/>
<path d="M674 888 L674 912 L691 912 L691 1054 L675 1054 L675 1078" fill="none" stroke="#64748b" stroke-width="1.5" marker-end="url(#arr-video-conferencing)"/>
<path d="M158 1140 L158 1235 L396 1235 L396 1330" fill="none" stroke="#64748b" stroke-width="1.5" marker-end="url(#arr-video-conferencing)"/>
<path d="M416 1140 L416 1330" fill="none" stroke="#64748b" stroke-width="1.5" marker-end="url(#arr-video-conferencing)"/>
<path d="M675 1140 L675 1235 L436 1235 L436 1330" fill="none" stroke="#64748b" stroke-width="1.5" marker-end="url(#arr-video-conferencing)"/>
<path d="M396 1392 L396 1487 L146 1487 L146 1582" fill="none" stroke="#64748b" stroke-width="1.5" marker-end="url(#arr-video-conferencing)"/>
<path d="M416 1392 L416 1582" fill="none" stroke="#64748b" stroke-width="1.5" marker-end="url(#arr-video-conferencing)"/>
<path d="M436 1392 L436 1487 L675 1487 L675 1582" fill="none" stroke="#64748b" stroke-width="1.5" marker-end="url(#arr-video-conferencing)"/>
<rect x="342" y="73" width="148" height="62" rx="12" fill="#0f172a" fill-opacity="0.08"/>
<rect x="342" y="70" width="148" height="62" rx="12" fill="#ecfdf5" stroke="#10b981" stroke-width="1.4"/>
<rect x="345" y="73" width="142" height="56" rx="9" fill="none" stroke="#ffffff" stroke-opacity="0.5" stroke-width="1"/>
<text x="416" y="106" text-anchor="middle" font-family="JetBrains Mono, ui-monospace, SFMono-Regular, Menlo, Consolas, monospace" font-size="13" font-weight="bold" fill="#064e3b">Web / Mobile</text>
<rect x="335" y="325" width="161" height="62" rx="12" fill="#0f172a" fill-opacity="0.08"/>
<rect x="335" y="322" width="161" height="62" rx="12" fill="#eef2ff" stroke="#6366f1" stroke-width="1.4"/>
<rect x="338" y="325" width="155" height="56" rx="9" fill="none" stroke="#ffffff" stroke-opacity="0.5" stroke-width="1"/>
<text x="415.5" y="358" text-anchor="middle" font-family="JetBrains Mono, ui-monospace, SFMono-Regular, Menlo, Consolas, monospace" font-size="13" font-weight="bold" fill="#312e81">WAF / API Gateway</text>
<rect x="342" y="577" width="148" height="62" rx="12" fill="#0f172a" fill-opacity="0.08"/>
<rect x="342" y="574" width="148" height="62" rx="12" fill="#eef2ff" stroke="#6366f1" stroke-width="1.4"/>
<rect x="345" y="577" width="142" height="56" rx="9" fill="none" stroke="#ffffff" stroke-opacity="0.5" stroke-width="1"/>
<text x="416" y="610" text-anchor="middle" font-family="JetBrains Mono, ui-monospace, SFMono-Regular, Menlo, Consolas, monospace" font-size="13" font-weight="bold" fill="#312e81">Load Balancer</text>
<rect x="84" y="829" width="148" height="62" rx="12" fill="#0f172a" fill-opacity="0.08"/>
<rect x="84" y="826" width="148" height="62" rx="12" fill="#eef2ff" stroke="#6366f1" stroke-width="1.4"/>
<rect x="87" y="829" width="142" height="56" rx="9" fill="none" stroke="#ffffff" stroke-opacity="0.5" stroke-width="1"/>
<text x="158" y="862" text-anchor="middle" font-family="JetBrains Mono, ui-monospace, SFMono-Regular, Menlo, Consolas, monospace" font-size="13" font-weight="bold" fill="#312e81">Signaling Svc</text>
<rect x="342" y="829" width="148" height="62" rx="12" fill="#0f172a" fill-opacity="0.08"/>
<rect x="342" y="826" width="148" height="62" rx="12" fill="#eef2ff" stroke="#6366f1" stroke-width="1.4"/>
<rect x="345" y="829" width="142" height="56" rx="9" fill="none" stroke="#ffffff" stroke-opacity="0.5" stroke-width="1"/>
<text x="416" y="862" text-anchor="middle" font-family="JetBrains Mono, ui-monospace, SFMono-Regular, Menlo, Consolas, monospace" font-size="13" font-weight="bold" fill="#312e81">Media Server</text>
<rect x="600" y="829" width="148" height="62" rx="12" fill="#0f172a" fill-opacity="0.08"/>
<rect x="600" y="826" width="148" height="62" rx="12" fill="#eef2ff" stroke="#6366f1" stroke-width="1.4"/>
<rect x="603" y="829" width="142" height="56" rx="9" fill="none" stroke="#ffffff" stroke-opacity="0.5" stroke-width="1"/>
<text x="674" y="862" text-anchor="middle" font-family="JetBrains Mono, ui-monospace, SFMono-Regular, Menlo, Consolas, monospace" font-size="13" font-weight="bold" fill="#312e81">Recording Svc</text>
<rect x="70" y="1585" width="151" height="62" rx="12" fill="#0f172a" fill-opacity="0.08"/>
<rect x="70" y="1582" width="151" height="62" rx="12" fill="#eef2ff" stroke="#6366f1" stroke-width="1.4"/>
<rect x="73" y="1585" width="145" height="56" rx="9" fill="none" stroke="#ffffff" stroke-opacity="0.5" stroke-width="1"/>
<text x="145.5" y="1618" text-anchor="middle" font-family="JetBrains Mono, ui-monospace, SFMono-Regular, Menlo, Consolas, monospace" font-size="13" font-weight="bold" fill="#312e81">Recording Workers</text>
<rect x="331" y="1585" width="148" height="62" rx="12" fill="#0f172a" fill-opacity="0.08"/>
<rect x="331" y="1582" width="148" height="62" rx="12" fill="#eef2ff" stroke="#6366f1" stroke-width="1.4"/>
<rect x="334" y="1585" width="142" height="56" rx="9" fill="none" stroke="#ffffff" stroke-opacity="0.5" stroke-width="1"/>
<text x="405" y="1618" text-anchor="middle" font-family="JetBrains Mono, ui-monospace, SFMono-Regular, Menlo, Consolas, monospace" font-size="13" font-weight="bold" fill="#312e81">Analytics</text>
<rect x="589" y="1585" width="172" height="62" rx="12" fill="#0f172a" fill-opacity="0.08"/>
<rect x="589" y="1582" width="172" height="62" rx="12" fill="#eef2ff" stroke="#6366f1" stroke-width="1.4"/>
<rect x="592" y="1585" width="166" height="56" rx="9" fill="none" stroke="#ffffff" stroke-opacity="0.5" stroke-width="1"/>
<text x="675" y="1618" text-anchor="middle" font-family="JetBrains Mono, ui-monospace, SFMono-Regular, Menlo, Consolas, monospace" font-size="13" font-weight="bold" fill="#312e81">Notification Workers</text>
<rect x="82" y="1081" width="151" height="62" rx="12" fill="#0f172a" fill-opacity="0.08"/>
<rect x="82" y="1078" width="151" height="62" rx="12" fill="#f5f3ff" stroke="#8b5cf6" stroke-width="1.4"/>
<rect x="85" y="1081" width="145" height="56" rx="9" fill="none" stroke="#ffffff" stroke-opacity="0.5" stroke-width="1"/>
<text x="157.5" y="1114" text-anchor="middle" font-family="JetBrains Mono, ui-monospace, SFMono-Regular, Menlo, Consolas, monospace" font-size="13" font-weight="bold" fill="#4c1d95">WebSocket + Redis</text>
<rect x="343" y="1081" width="148" height="62" rx="12" fill="#0f172a" fill-opacity="0.08"/>
<rect x="343" y="1078" width="148" height="62" rx="12" fill="#f5f3ff" stroke="#8b5cf6" stroke-width="1.4"/>
<rect x="346" y="1081" width="142" height="56" rx="9" fill="none" stroke="#ffffff" stroke-opacity="0.5" stroke-width="1"/>
<text x="417" y="1114" text-anchor="middle" font-family="JetBrains Mono, ui-monospace, SFMono-Regular, Menlo, Consolas, monospace" font-size="13" font-weight="bold" fill="#4c1d95">SFU (mediasoup)</text>
<rect x="601" y="1081" width="148" height="62" rx="12" fill="#0f172a" fill-opacity="0.08"/>
<rect x="601" y="1078" width="148" height="62" rx="12" fill="#f5f3ff" stroke="#8b5cf6" stroke-width="1.4"/>
<rect x="604" y="1081" width="142" height="56" rx="9" fill="none" stroke="#ffffff" stroke-opacity="0.5" stroke-width="1"/>
<text x="675" y="1114" text-anchor="middle" font-family="JetBrains Mono, ui-monospace, SFMono-Regular, Menlo, Consolas, monospace" font-size="13" font-weight="bold" fill="#4c1d95">S3 + FFmpeg</text>
<rect x="342" y="1333" width="148" height="62" rx="12" fill="#0f172a" fill-opacity="0.08"/>
<rect x="342" y="1330" width="148" height="62" rx="12" fill="#fff7ed" stroke="#f97316" stroke-width="1.4"/>
<rect x="345" y="1333" width="142" height="56" rx="9" fill="none" stroke="#ffffff" stroke-opacity="0.5" stroke-width="1"/>
<text x="416" y="1366" text-anchor="middle" font-family="JetBrains Mono, ui-monospace, SFMono-Regular, Menlo, Consolas, monospace" font-size="13" font-weight="bold" fill="#7c2d12">Kafka</text>
<defs><marker id="arr-video-conferencing" viewBox="0 0 10 10" refX="9" refY="5" markerWidth="9" markerHeight="9" markerUnits="userSpaceOnUse" orient="auto-start-reverse"><path d="M0 0 L10 5 L0 10 z" fill="#64748b"/></marker><marker id="arrEm-video-conferencing" viewBox="0 0 10 10" refX="9" refY="5" markerWidth="9" markerHeight="9" markerUnits="userSpaceOnUse" orient="auto-start-reverse"><path d="M0 0 L10 5 L0 10 z" fill="#10b981"/></marker></defs>
</svg>
