<svg xmlns="http://www.w3.org/2000/svg" viewBox="0 0 960 1762" width="900" role="img" aria-label="Reference Architecture Template">
<title>Reference Architecture Template</title>
<rect x="0.5" y="0.5" width="959" height="1761" rx="16" fill="#f8fafc" stroke="#e2e8f0" stroke-width="1"/>
<rect x="52" y="288" width="201" height="1374" rx="14" fill="none" stroke="#cbd5e1" stroke-width="1.3" stroke-dasharray="7 5"/>
<rect x="64" y="296" width="99.2" height="20" rx="10" fill="#ffffff" stroke="#e2e8f0" stroke-width="1"/>
<text x="113.6" y="310" text-anchor="middle" font-family="JetBrains Mono, ui-monospace, SFMono-Regular, Menlo, Consolas, monospace" font-size="11" fill="#475569">System Name</text>
<path d="M153 132 L153 156 L169 156 L169 298 L153 298 L153 322" fill="none" stroke="#64748b" stroke-width="1.5" marker-end="url(#arr-template)"/>
<path d="M153 384 L153 574" fill="none" stroke="#64748b" stroke-width="1.5" marker-end="url(#arr-template)"/>
<path d="M153 636 L153 660 L169 660 L169 802 L153 802 L153 826" fill="none" stroke="#64748b" stroke-width="1.5" marker-end="url(#arr-template)"/>
<path d="M153 888 L153 1078" fill="none" stroke="#64748b" stroke-width="1.5" marker-end="url(#arr-template)"/>
<path d="M153 1140 L153 1330" fill="none" stroke="#64748b" stroke-width="1.5" marker-end="url(#arr-template)"/>
<path d="M153 1392 L153 1582" fill="none" stroke="#64748b" stroke-width="1.5" marker-end="url(#arr-template)"/>
<rect x="79" y="73" width="148" height="62" rx="12" fill="#0f172a" fill-opacity="0.08"/>
<rect x="79" y="70" width="148" height="62" rx="12" fill="#ecfdf5" stroke="#10b981" stroke-width="1.4"/>
<rect x="82" y="73" width="142" height="56" rx="9" fill="none" stroke="#ffffff" stroke-opacity="0.5" stroke-width="1"/>
<text x="153" y="106" text-anchor="middle" font-family="JetBrains Mono, ui-monospace, SFMono-Regular, Menlo, Consolas, monospace" font-size="13" font-weight="bold" fill="#064e3b">Web / Mobile</text>
<rect x="72" y="325" width="161" height="62" rx="12" fill="#0f172a" fill-opacity="0.08"/>
<rect x="72" y="322" width="161" height="62" rx="12" fill="#eef2ff" stroke="#6366f1" stroke-width="1.4"/>
<rect x="75" y="325" width="155" height="56" rx="9" fill="none" stroke="#ffffff" stroke-opacity="0.5" stroke-width="1"/>
<text x="152.5" y="358" text-anchor="middle" font-family="JetBrains Mono, ui-monospace, SFMono-Regular, Menlo, Consolas, monospace" font-size="13" font-weight="bold" fill="#312e81">WAF / API Gateway</text>
<rect x="70" y="577" width="165" height="62" rx="12" fill="#0f172a" fill-opacity="0.08"/>
<rect x="70" y="574" width="165" height="62" rx="12" fill="#eef2ff" stroke="#6366f1" stroke-width="1.4"/>
<rect x="73" y="577" width="159" height="56" rx="9" fill="none" stroke="#ffffff" stroke-opacity="0.5" stroke-width="1"/>
<text x="152.5" y="610" text-anchor="middle" font-family="JetBrains Mono, ui-monospace, SFMono-Regular, Menlo, Consolas, monospace" font-size="13" font-weight="bold" fill="#312e81">Load Balancer (ALB)</text>
<rect x="79" y="829" width="148" height="62" rx="12" fill="#0f172a" fill-opacity="0.08"/>
<rect x="79" y="826" width="148" height="62" rx="12" fill="#eef2ff" stroke="#6366f1" stroke-width="1.4"/>
<rect x="82" y="829" width="142" height="56" rx="9" fill="none" stroke="#ffffff" stroke-opacity="0.5" stroke-width="1"/>
<text x="153" y="862" text-anchor="middle" font-family="JetBrains Mono, ui-monospace, SFMono-Regular, Menlo, Consolas, monospace" font-size="13" font-weight="bold" fill="#312e81">Service A</text>
<rect x="79" y="1585" width="148" height="62" rx="12" fill="#0f172a" fill-opacity="0.08"/>
<rect x="79" y="1582" width="148" height="62" rx="12" fill="#eef2ff" stroke="#6366f1" stroke-width="1.4"/>
<rect x="82" y="1585" width="142" height="56" rx="9" fill="none" stroke="#ffffff" stroke-opacity="0.5" stroke-width="1"/>
<text x="153" y="1618" text-anchor="middle" font-family="JetBrains Mono, ui-monospace, SFMono-Regular, Menlo, Consolas, monospace" font-size="13" font-weight="bold" fill="#312e81">Workers</text>
<rect x="74" y="1081" width="158" height="62" rx="12" fill="#0f172a" fill-opacity="0.08"/>
<rect x="74" y="1078" width="158" height="62" rx="12" fill="#f5f3ff" stroke="#8b5cf6" stroke-width="1.4"/>
<rect x="77" y="1081" width="152" height="56" rx="9" fill="none" stroke="#ffffff" stroke-opacity="0.5" stroke-width="1"/>
<text x="153" y="1114" text-anchor="middle" font-family="JetBrains Mono, ui-monospace, SFMono-Regular, Menlo, Consolas, monospace" font-size="13" font-weight="bold" fill="#4c1d95">PostgreSQL + Redis</text>
<rect x="79" y="1333" width="148" height="62" rx="12" fill="#0f172a" fill-opacity="0.08"/>
<rect x="79" y="1330" width="148" height="62" rx="12" fill="#fff7ed" stroke="#f97316" stroke-width="1.4"/>
<rect x="82" y="1333" width="142" height="56" rx="9" fill="none" stroke="#ffffff" stroke-opacity="0.5" stroke-width="1"/>
<text x="153" y="1366" text-anchor="middle" font-family="JetBrains Mono, ui-monospace, SFMono-Regular, Menlo, Consolas, monospace" font-size="13" font-weight="bold" fill="#7c2d12">Kafka</text>
<defs><marker id="arr-template" viewBox="0 0 10 10" refX="9" refY="5" markerWidth="9" markerHeight="9" markerUnits="userSpaceOnUse" orient="auto-start-reverse"><path d="M0 0 L10 5 L0 10 z" fill="#64748b"/></marker><marker id="arrEm-template" viewBox="0 0 10 10" refX="9" refY="5" markerWidth="9" markerHeight="9" markerUnits="userSpaceOnUse" orient="auto-start-reverse"><path d="M0 0 L10 5 L0 10 z" fill="#10b981"/></marker></defs>
</svg>
